{
  "accessors": [
    {
      "bufferView": 2,
      "componentType": 5126,
      "count": 1551,
      "max": [
        13.909971237182617,
        5.8702125549316406,
        30.489967346191406
      ],
      "min": [
        -13.909971237182617,
        -22.173551559448242,
        -17.1025390625
      ],
      "type": "VEC3"
    },
    {
      "bufferView": 2,
      "byteOffset": 18612,
      "componentType": 5126,
      "count": 1551,
      "max": [
        0.99998772144317627,
        1,
        0.99036478996276855
      ],
      "min": [
        -0.99998772144317627,
        -0.99998509883880615,
        -0.9989277720451355
      ],
      "type": "VEC3"
    },
    {
      "bufferView": 3,
      "componentType": 5126,
      "count": 1551,
      "max": [
        1,
        0.99995231628417969,
        0.99773174524307251,
        1
      ],
      "min": [
        -0.95434111356735229,
        -0.99995231628417969,
        -0.99999737739562988,
        -1
      ],
      "type": "VEC4"
    },
    {
      "bufferView": 1,
      "componentType": 5126,
      "count": 1551,
      "max": [
        0.99950003623962402,
        0.99224555492401123
      ],
      "min": [
        0.00050000002374872565,
        0.06738559901714325
      ],
      "type": "VEC2"
    },
    {
      "bufferView": 0,
      "componentType": 5125,
      "count": 8250,
      "max": [
        1550
      ],
      "min": [
        0
      ],
      "type": "SCALAR"
    }
  ],
  "asset": {
    "extras": {
      "author": "Rmatey (https://sketchfab.com/Rmatey)",
      "license": "CC-BY-4.0 (http://creativecommons.org/licenses/by/4.0/)",
      "source": "https://sketchfab.com/3d-models/to-the-top-kitsune-mask-3b563c3562ca4c3ca986fadfe2d65e12",
      "title": "TO THE TOP Kitsune Mask"
    },
    "generator": "Sketchfab-9.62.1",
    "version": "2.0"
  },
  "bufferViews": [
    {
      "buffer": 0,
      "byteLength": 33000,
      "byteOffset": 0,
      "name": "floatBufferViews",
      "target": 34963
    },
    {
      "buffer": 0,
      "byteLength": 12408,
      "byteOffset": 33000,
      "byteStride": 8,
      "name": "floatBufferViews",
      "target": 34962
    },
    {
      "buffer": 0,
      "byteLength": 37224,
      "byteOffset": 45408,
      "byteStride": 12,
      "name": "floatBufferViews",
      "target": 34962
    },
    {
      "buffer": 0,
      "byteLength": 24816,
      "byteOffset": 82632,
      "byteStride": 16,
      "name": "floatBufferViews",
      "target": 34962
    }
  ],
  "buffers": [
    {
      "byteLength": 107448,
      "uri": "scene.bin"
    }
  ],
  "images": [
    {
      "uri": "textures/Mask_TTTKitsune_baseColor.png"
    },
    {
      "uri": "textures/Mask_TTTKitsune_metallicRoughness.png"
    },
    {
      "uri": "textures/Mask_TTTKitsune_normal.png"
    }
  ],
  "materials": [
    {
      "doubleSided": true,
      "emissiveFactor": [
        0,
        0,
        0
      ],
      "name": "Mask_TTTKitsune",
      "normalTexture": {
        "index": 2,
        "scale": 1,
        "texCoord": 0
      },
      "occlusionTexture": {
        "index": 1,
        "strength": 1,
        "texCoord": 0
      },
      "pbrMetallicRoughness": {
        "baseColorFactor": [
          1,
          1,
          1,
          1
        ],
        "baseColorTexture": {
          "index": 0,
          "texCoord": 0
        },
        "metallicFactor": 1,
        "metallicRoughnessTexture": {
          "index": 1,
          "texCoord": 0
        },
        "roughnessFactor": 0.16291920731707321
      }
    }
  ],
  "meshes": [
    {
      "name": "Mask_TTTKitsune_Mask_TTTKitsune_0",
      "primitives": [
        {
          "attributes": {
            "NORMAL": 1,
            "POSITION": 0,
            "TANGENT": 2,
            "TEXCOORD_0": 3
          },
          "indices": 4,
          "material": 0,
          "mode": 4
        }
      ]
    }
  ],
  "nodes": [
    {
      "children": [
        1
      ],
      "name": "RootNode (gltf orientation matrix)",
      "rotation": [
        -0.70710678118654746,
        -0,
        -0,
        0.70710678118654757
      ]
    },
    {
      "children": [
        2
      ],
      "matrix": [
        1,
        0,
        0,
        0,
        0,
        0.97769206762313843,
        -0.2100432962179184,
        0,
        0,
        0.2100432962179184,
        0.97769206762313843,
        0,
        0,
        -0.031756650656461716,
        -0.031257934868335724,
        1
      ],
      "name": "RootNode (model correction matrix)"
    },
    {
      "children": [
        3
      ],
      "matrix": [
        1,
        0,
        0,
        0,
        0,
        0,
        1,
        0,
        0,
        -1,
        0,
        0,
        0,
        0,
        0,
        1
      ],
      "name": "Mask_TTTKitsuneSmaller3.FBX"
    },
    {
      "children": [
        4,
        6,
        9
      ],
      "name": "RootNode"
    },
    {
      "children": [
        5
      ],
      "matrix": [
        0.019999999552965164,
        0,
        0,
        0,
        0,
        -3.2584135150054091e-09,
        -0.019999999552964901,
        0,
        0,
        0.019999999552964901,
        -3.2584135150054091e-09,
        0,
        0,
        0,
        0,
        1
      ],
      "name": "Mask_TTTKitsune"
    },
    {
      "mesh": 0,
      "name": "Mask_TTTKitsune_Mask_TTTKitsune_0"
    },
    {
      "children": [
        7
      ],
      "matrix": [
        -0.58172949139181762,
        -0.11037816407237999,
        -1.9103422362867413,
        0,
        1.1327859966871687,
        1.5893446753794536,
        -0.43678245353412859,
        0,
        1.5422018452798616,
        -1.2090491564094203,
        -0.3997669393547425,
        0,
        8.1524906158447266,
        11.807723999023438,
        -2.0109078884124756,
        1
      ],
      "name": "Lamp"
    },
    {
      "children": [
        8
      ],
      "matrix": [
        1,
        0,
        0,
        0,
        0,
        2.2204460492503131e-16,
        1,
        0,
        0,
        -1,
        2.2204460492503131e-16,
        0,
        0,
        0,
        0,
        1
      ],
      "name": ""
    },
    {
      "name": ""
    },
    {
      "children": [
        10
      ],
      "matrix": [
        -1.3031161773618005,
        -0.89054273001054907,
        -1.2283409125671028,
        0,
        -0.64802693721795634,
        1.7907913199154286,
        -0.61084166291721753,
        0,
        1.3718415048784491,
        1.7333818996823069e-07,
        -1.4553524952714385,
        0,
        14.962263107299805,
        10.68733024597168,
        13.015279769897461,
        1
      ],
      "name": "Camera"
    },
    {
      "name": ""
    }
  ],
  "samplers": [
    {
      "magFilter": 9729,
      "minFilter": 9987,
      "wrapS": 10497,
      "wrapT": 10497
    }
  ],
  "scene": 0,
  "scenes": [
    {
      "name": "OSG_Scene",
      "nodes": [
        0
      ]
    }
  ],
  "textures": [
    {
      "sampler": 0,
      "source": 0
    },
    {
      "sampler": 0,
      "source": 1
    },
    {
      "sampler": 0,
      "source": 2
    }
  ]
}

