{
  "accessors": [
    {
      "bufferView": 0,
      "componentType": 5125,
      "count": 18816,
      "type": "SCALAR"
    },
    {
      "bufferView": 1,
      "componentType": 5126,
      "count": 3246,
      "max": [
        9.00331687927246,
        177.925170898438,
        7.64901828765869
      ],
      "min": [
        -9.00331687927246,
        153.37532043457,
        -4.62508726119995
      ],
      "type": "VEC3"
    },
    {
      "bufferView": 2,
      "componentType": 5126,
      "count": 3246,
      "type": "VEC3"
    },
    {
      "bufferView": 3,
      "componentType": 5126,
      "count": 3246,
      "type": "VEC2"
    },
    {
      "bufferView": 4,
      "componentType": 5125,
      "count": 1680,
      "type": "SCALAR"
    },
    {
      "bufferView": 5,
      "componentType": 5126,
      "count": 476,
      "max": [
        7.28962707519531,
        167.854522705078,
        -3.33378505706787
      ],
      "min": [
        -7.28962707519531,
        166.269607543945,
        -4.51980495452881
      ],
      "type": "VEC3"
    },
    {
      "bufferView": 6,
      "componentType": 5126,
      "count": 476,
      "type": "VEC3"
    },
    {
      "bufferView": 7,
      "componentType": 5126,
      "count": 476,
      "type": "VEC2"
    },
    {
      "bufferView": 8,
      "componentType": 5125,
      "count": 1812,
      "type": "SCALAR"
    },
    {
      "bufferView": 9,
      "componentType": 5126,
      "count": 616,
      "max": [
        7.31380414962769,
        167.600051879883,
        -4.03273487091064
      ],
      "min": [
        -7.31380414962769,
        165.836181640625,
        -14.3865566253662
      ],
      "type": "VEC3"
    },
    {
      "bufferView": 10,
      "componentType": 5126,
      "count": 616,
      "type": "VEC3"
    },
    {
      "bufferView": 11,
      "componentType": 5126,
      "count": 616,
      "type": "VEC2"
    },
    {
      "bufferView": 12,
      "componentType": 5125,
      "count": 2148,
      "type": "SCALAR"
    },
    {
      "bufferView": 13,
      "componentType": 5126,
      "count": 402,
      "max": [
        6.16818714141846,
        168.145706176758,
        2.79226303100586
      ],
      "min": [
        -6.1379976272583,
        161.32861328125,
        -1.301677942276
      ],
      "type": "VEC3"
    },
    {
      "bufferView": 14,
      "componentType": 5126,
      "count": 402,
      "type": "VEC3"
    },
    {
      "bufferView": 15,
      "componentType": 5126,
      "count": 402,
      "type": "VEC2"
    }
  ],
  "asset": {
    "generator": "Adobe Substance 3D Painter 7.4.0",
    "version": "2.0"
  },
  "bufferViews": [
    {
      "buffer": 0,
      "byteLength": 75264,
      "target": 34963
    },
    {
      "buffer": 0,
      "byteLength": 38952,
      "byteOffset": 75264,
      "target": 34962
    },
    {
      "buffer": 0,
      "byteLength": 38952,
      "byteOffset": 114216,
      "target": 34962
    },
    {
      "buffer": 0,
      "byteLength": 25968,
      "byteOffset": 153168,
      "target": 34962
    },
    {
      "buffer": 0,
      "byteLength": 6720,
      "byteOffset": 179136,
      "target": 34963
    },
    {
      "buffer": 0,
      "byteLength": 5712,
      "byteOffset": 185856,
      "target": 34962
    },
    {
      "buffer": 0,
      "byteLength": 5712,
      "byteOffset": 191568,
      "target": 34962
    },
    {
      "buffer": 0,
      "byteLength": 3808,
      "byteOffset": 197280,
      "target": 34962
    },
    {
      "buffer": 0,
      "byteLength": 7248,
      "byteOffset": 201088,
      "target": 34963
    },
    {
      "buffer": 0,
      "byteLength": 7392,
      "byteOffset": 208336,
      "target": 34962
    },
    {
      "buffer": 0,
      "byteLength": 7392,
      "byteOffset": 215728,
      "target": 34962
    },
    {
      "buffer": 0,
      "byteLength": 4928,
      "byteOffset": 223120,
      "target": 34962
    },
    {
      "buffer": 0,
      "byteLength": 8592,
      "byteOffset": 228048,
      "target": 34963
    },
    {
      "buffer": 0,
      "byteLength": 4824,
      "byteOffset": 236640,
      "target": 34962
    },
    {
      "buffer": 0,
      "byteLength": 4824,
      "byteOffset": 241464,
      "target": 34962
    },
    {
      "buffer": 0,
      "byteLength": 3216,
      "byteOffset": 246288,
      "target": 34962
    }
  ],
  "buffers": [
    {
      "byteLength": 249504,
      "uri": "ACCESSORIES_QUARTERMASKONIV1_07_006.bin"
    }
  ],
  "images": [
    {
      "uri": "blinn1_baseColor.png"
    },
    {
      "uri": "blinn1_occlusionRoughnessMetallic.png"
    },
    {
      "uri": "blinn1_normal.png"
    },
    {
      "uri": "blinn3_baseColor.png"
    },
    {
      "uri": "blinn3_occlusionRoughnessMetallic.png"
    },
    {
      "uri": "blinn3_normal.png"
    },
    {
      "uri": "blinn4_baseColor.png"
    },
    {
      "uri": "blinn4_occlusionRoughnessMetallic.png"
    },
    {
      "uri": "blinn4_normal.png"
    },
    {
      "uri": "mask_high_poly1_defaultMat1_baseColor.png"
    },
    {
      "uri": "mask_high_poly1_defaultMat1_occlusionRoughnessMetallic.png"
    },
    {
      "uri": "mask_high_poly1_defaultMat1_normal.png"
    }
  ],
  "materials": [
    {
      "alphaMode": "OPAQUE",
      "name": "blinn1",
      "normalTexture": {
        "index": 2
      },
      "occlusionTexture": {
        "index": 1
      },
      "pbrMetallicRoughness": {
        "baseColorTexture": {
          "index": 0
        },
        "metallicRoughnessTexture": {
          "index": 1
        }
      }
    },
    {
      "alphaMode": "OPAQUE",
      "name": "blinn3",
      "normalTexture": {
        "index": 5
      },
      "occlusionTexture": {
        "index": 4
      },
      "pbrMetallicRoughness": {
        "baseColorTexture": {
          "index": 3
        },
        "metallicRoughnessTexture": {
          "index": 4
        }
      }
    },
    {
      "alphaMode": "OPAQUE",
      "name": "blinn4",
      "normalTexture": {
        "index": 8
      },
      "occlusionTexture": {
        "index": 7
      },
      "pbrMetallicRoughness": {
        "baseColorTexture": {
          "index": 6
        },
        "metallicRoughnessTexture": {
          "index": 7
        }
      }
    },
    {
      "alphaMode": "OPAQUE",
      "name": "mask_high_poly1_defaultMat1",
      "normalTexture": {
        "index": 11
      },
      "occlusionTexture": {
        "index": 10
      },
      "pbrMetallicRoughness": {
        "baseColorTexture": {
          "index": 9
        },
        "metallicRoughnessTexture": {
          "index": 10
        }
      }
    }
  ],
  "meshes": [
    {
      "name": "polySurface1",
      "primitives": [
        {
          "attributes": {
            "NORMAL": 2,
            "POSITION": 1,
            "TEXCOORD_0": 3
          },
          "indices": 0,
          "material": 0,
          "mode": 4
        }
      ]
    },
    {
      "name": "polySurface2",
      "primitives": [
        {
          "attributes": {
            "NORMAL": 6,
            "POSITION": 5,
            "TEXCOORD_0": 7
          },
          "indices": 4,
          "material": 2,
          "mode": 4
        }
      ]
    },
    {
      "name": "polySurface4",
      "primitives": [
        {
          "attributes": {
            "NORMAL": 10,
            "POSITION": 9,
            "TEXCOORD_0": 11
          },
          "indices": 8,
          "material": 1,
          "mode": 4
        }
      ]
    },
    {
      "name": "mask_high_poly1:ZBrushPolyMesh3D",
      "primitives": [
        {
          "attributes": {
            "NORMAL": 14,
            "POSITION": 13,
            "TEXCOORD_0": 15
          },
          "indices": 12,
          "material": 3,
          "mode": 4
        }
      ]
    }
  ],
  "nodes": [
    {
      "children": [
        1,
        3,
        5,
        7
      ],
      "name": "root"
    },
    {
      "children": [
        2
      ],
      "name": "polySurface1"
    },
    {
      "mesh": 0,
      "name": "polySurface1"
    },
    {
      "children": [
        4
      ],
      "name": "polySurface2"
    },
    {
      "mesh": 1,
      "name": "polySurface2"
    },
    {
      "children": [
        6
      ],
      "name": "polySurface4"
    },
    {
      "mesh": 2,
      "name": "polySurface4"
    },
    {
      "children": [
        8
      ],
      "name": "mask_high_poly1:ZBrushPolyMesh3D"
    },
    {
      "mesh": 3,
      "name": "mask_high_poly1:ZBrushPolyMesh3D"
    }
  ],
  "samplers": [
    {
      "magFilter": 9729,
      "minFilter": 9985,
      "wrapS": 10497,
      "wrapT": 10497
    }
  ],
  "scene": 0,
  "scenes": [
    {
      "name": "Scene",
      "nodes": [
        0
      ]
    }
  ],
  "textures": [
    {
      "sampler": 0,
      "source": 0
    },
    {
      "sampler": 0,
      "source": 1
    },
    {
      "sampler": 0,
      "source": 2
    },
    {
      "sampler": 0,
      "source": 3
    },
    {
      "sampler": 0,
      "source": 4
    },
    {
      "sampler": 0,
      "source": 5
    },
    {
      "sampler": 0,
      "source": 6
    },
    {
      "sampler": 0,
      "source": 7
    },
    {
      "sampler": 0,
      "source": 8
    },
    {
      "sampler": 0,
      "source": 9
    },
    {
      "sampler": 0,
      "source": 10
    },
    {
      "sampler": 0,
      "source": 11
    }
  ]
}